<?xml version="1.0" encoding="utf-8"?>
<!-- Generator: Adobe Illustrator 26.0.0, SVG Export Plug-In . SVG Version: 6.00 Build 0)  -->
<svg version="1.1" id="Layer_1" xmlns="http://www.w3.org/2000/svg" xmlns:xlink="http://www.w3.org/1999/xlink" x="0px" y="0px"
	 viewBox="0 0 150 40" style="enable-background:new 0 0 150 40;" xml:space="preserve">
<style type="text/css">
	.st0{fill:#30BDCA;}
	.st1{fill:none;}
	.st2{fill:url(#SVGID_1_);}
	.st3{fill:url(#SVGID_00000022523619304608661160000006826198431238298032_);}
	.st4{fill:url(#SVGID_00000161591268573903266320000014433847096013403041_);}
	.st5{fill:url(#SVGID_00000056405205650967325480000011580381868120280766_);}
	.st6{fill:url(#SVGID_00000052078722755462685050000016591895734780915091_);}
	.st7{fill:url(#SVGID_00000007415932391428207270000000365171395599148711_);}
	.st8{fill:url(#SVGID_00000012463318699643248630000017407847916477259439_);}
	.st9{fill:url(#SVGID_00000031908756238170860720000003416161315960131201_);}
</style>
<g>
	<g>
		<path class="st0" d="M38.3,17.5h1.8v8.2h-1.8l-3.9-5.2v5.2h-1.8v-8.2h1.7l4,5.3L38.3,17.5L38.3,17.5z"/>
		<path class="st0" d="M48.1,17.5v1.6H44v1.7h3.7v1.6H44v1.7h4.2v1.6h-6.1v-8.2L48.1,17.5L48.1,17.5z"/>
		<path class="st0" d="M55.5,18.2c0.6,0.5,0.9,1.2,0.9,2.3c0,1-0.3,1.8-0.9,2.2s-1.5,0.7-2.7,0.7h-1.1v2.3h-1.8v-8.2h2.9
			C54,17.5,54.9,17.8,55.5,18.2z M54.2,21.5c0.2-0.2,0.3-0.6,0.3-1.1c0-0.5-0.1-0.8-0.4-1s-0.7-0.3-1.3-0.3h-1v2.8h1.2
			C53.5,21.9,54,21.7,54.2,21.5z"/>
		<path class="st0" d="M62.9,17.5h1.8v8.2h-1.8v-3.2h-3.3v3.2h-1.8v-8.2h1.8v3.4h3.3V17.5z"/>
		<path class="st0" d="M73.5,20.2c0,1.3-0.5,2.2-1.6,2.6l2.1,3h-2.3l-1.8-2.6h-1.3v2.6h-1.8v-8.2h3.1c1.3,0,2.2,0.2,2.7,0.6
			C73.2,18.6,73.5,19.3,73.5,20.2z M71.3,21.2c0.2-0.2,0.3-0.5,0.3-1c0-0.4-0.1-0.8-0.3-0.9s-0.7-0.2-1.2-0.2h-1.4v2.4H70
			C70.6,21.5,71.1,21.4,71.3,21.2z"/>
		<path class="st0" d="M82.2,24.6c-0.8,0.8-1.9,1.2-3.1,1.2s-2.2-0.4-3.1-1.2c-0.8-0.8-1.2-1.8-1.2-3c0-1.2,0.4-2.2,1.2-3
			c0.8-0.8,1.9-1.2,3.1-1.2s2.2,0.4,3.1,1.2c0.8,0.8,1.2,1.8,1.2,3C83.5,22.8,83.1,23.8,82.2,24.6z M81.6,21.6
			c0-0.7-0.2-1.4-0.7-1.9c-0.5-0.5-1.1-0.8-1.7-0.8s-1.3,0.3-1.7,0.8s-0.7,1.1-0.7,1.9s0.2,1.4,0.7,1.9s1.1,0.8,1.7,0.8
			s1.3-0.3,1.7-0.8S81.6,22.3,81.6,21.6z"/>
		<path class="st0" d="M85,17.5h1.8v8.2H85V17.5z"/>
		<path class="st0" d="M94.7,17.5h1.8v8.2h-1.8l-3.9-5.2v5.2h-1.8v-8.2h1.7l4,5.3V17.5z"/>
		<path class="st0" d="M104.3,17.5h1.8v8.2h-1.8l-3.9-5.2v5.2h-1.8v-8.2h1.7l4,5.3L104.3,17.5L104.3,17.5z"/>
		<path class="st0" d="M115.1,24.6c-0.8,0.8-1.9,1.2-3.1,1.2s-2.2-0.4-3.1-1.2c-0.8-0.8-1.2-1.8-1.2-3c0-1.2,0.4-2.2,1.2-3
			c0.8-0.8,1.9-1.2,3.1-1.2s2.2,0.4,3.1,1.2c0.8,0.8,1.2,1.8,1.2,3S115.9,23.8,115.1,24.6z M114.5,21.6c0-0.7-0.2-1.4-0.7-1.9
			c-0.5-0.5-1.1-0.8-1.7-0.8s-1.3,0.3-1.7,0.8s-0.7,1.1-0.7,1.9s0.2,1.4,0.7,1.9s1.1,0.8,1.7,0.8s1.3-0.3,1.7-0.8
			S114.5,22.3,114.5,21.6z"/>
		<path class="st0" d="M120.8,22.8l2.1-5.2h2l-3.3,8.2H120l-3.3-8.2h2L120.8,22.8z"/>
		<path class="st0" d="M131.2,25.8l-0.8-1.8H127l-0.8,1.8h-2l3.6-8.2h1.8l3.6,8.2H131.2z M128.7,20l-1,2.4h2.1L128.7,20z"/>
		<path class="st0" d="M137,19.1v6.6h-1.8v-6.6h-2.3v-1.6h6.5v1.6H137z"/>
		<path class="st0" d="M146.6,17.5v1.6h-4.1v1.7h3.7v1.6h-3.7v1.7h4.2v1.6h-6.1v-8.2L146.6,17.5L146.6,17.5z"/>
	</g>
	<g>
		<ellipse class="st1" cx="20.9" cy="21" rx="1.1" ry="1.2"/>
		<ellipse class="st1" cx="18.5" cy="25.8" rx="1.5" ry="1.3"/>
		<ellipse transform="matrix(0.16 -0.9871 0.9871 0.16 -0.7822 31.7961)" class="st1" cx="18.3" cy="16.4" rx="1.1" ry="1.4"/>
		
			<linearGradient id="SVGID_1_" gradientUnits="userSpaceOnUse" x1="16.4004" y1="32.08" x2="16.4004" y2="5.87" gradientTransform="matrix(1 0 0 -1 0 40)">
			<stop  offset="0" style="stop-color:#00E8BF"/>
			<stop  offset="1.527792e-02" style="stop-color:#03E5C0"/>
			<stop  offset="0.1291" style="stop-color:#14D6C4"/>
			<stop  offset="0.2137" style="stop-color:#1AD1C5"/>
			<stop  offset="0.4109" style="stop-color:#2AC2C9"/>
			<stop  offset="0.5614" style="stop-color:#30BDCA"/>
			<stop  offset="0.6511" style="stop-color:#32B5C9"/>
			<stop  offset="0.7876" style="stop-color:#39A0C8"/>
			<stop  offset="0.953" style="stop-color:#437EC5"/>
			<stop  offset="1" style="stop-color:#4673C4"/>
		</linearGradient>
		<path class="st2" d="M25.9,12.1c-2.4-2.6-5.6-4-9.1-4.1c-0.1,0-0.3,0-0.4,0c-3.3,0-6.5,1.3-9,3.6c-2.6,2.4-4,5.6-4.1,9.1
			c-0.1,2.3,0.5,4.6,1.6,6.7c1,1.9,2.5,3.5,4.2,4.6C9.2,32,9.3,32,9.4,32c0.2,0,0.4-0.1,0.5-0.3c0.2-0.3,0.1-0.6-0.2-0.8
			c-3.4-2.3-5.4-6.2-5.3-10.3c0.1-3.2,1.4-6.2,3.8-8.4c2.2-2.1,5.1-3.2,8.2-3.2c0.1,0,0.2,0,0.4,0c3.2,0.1,6.2,1.4,8.4,3.8
			s3.3,5.4,3.2,8.6c-0.2,6.4-5.6,11.6-12,11.6c-0.1,0-0.2,0-0.4,0c-0.9,0-1.8-0.2-2.7-0.4c0,0-0.1,0-0.1,0c-0.2,0-0.4,0.2-0.5,0.4
			l0,0.1c0,0.2,0,0.3,0.1,0.4c0.1,0.1,0.2,0.2,0.4,0.3c0.9,0.2,1.9,0.4,2.9,0.4c0.1,0,0.3,0,0.4,0c0,0,0.1,0,0.1,0
			c3.4,0,6.6-1.4,9-3.7c2.4-2.4,3.8-5.6,3.9-9C29.6,17.9,28.3,14.6,25.9,12.1z"/>
		
			<linearGradient id="SVGID_00000159440625058108441240000004288074163840835216_" gradientUnits="userSpaceOnUse" x1="9.77" y1="19.2615" x2="9.77" y2="17.8867" gradientTransform="matrix(1 0 0 -1 0 40)">
			<stop  offset="0" style="stop-color:#00E8BF"/>
			<stop  offset="0" style="stop-color:#2BC2C9"/>
			<stop  offset="1" style="stop-color:#30BDCA"/>
		</linearGradient>
		<circle style="fill:url(#SVGID_00000159440625058108441240000004288074163840835216_);" cx="9.8" cy="21.4" r="0.7"/>
		
			<linearGradient id="SVGID_00000150797307410694146160000005901705710361272466_" gradientUnits="userSpaceOnUse" x1="9.32" y1="21.7135" x2="9.32" y2="20.0785" gradientTransform="matrix(1 0 0 -1 0 40)">
			<stop  offset="0" style="stop-color:#00E8BF"/>
			<stop  offset="0" style="stop-color:#2BC2C9"/>
			<stop  offset="1" style="stop-color:#30BDCA"/>
		</linearGradient>
		<circle style="fill:url(#SVGID_00000150797307410694146160000005901705710361272466_);" cx="9.3" cy="19.1" r="0.8"/>
		
			<linearGradient id="SVGID_00000077287523044029695240000014567829340942562450_" gradientUnits="userSpaceOnUse" x1="7.73" y1="19.7918" x2="7.73" y2="18.7318" gradientTransform="matrix(1 0 0 -1 0 40)">
			<stop  offset="0" style="stop-color:#00E8BF"/>
			<stop  offset="0" style="stop-color:#2BC2C9"/>
			<stop  offset="1" style="stop-color:#30BDCA"/>
		</linearGradient>
		<circle style="fill:url(#SVGID_00000077287523044029695240000014567829340942562450_);" cx="7.7" cy="20.7" r="0.5"/>
		
			<linearGradient id="SVGID_00000153673682324945113560000005179910280392137356_" gradientUnits="userSpaceOnUse" x1="19.2847" y1="28.3183" x2="19.2847" y2="8.9845" gradientTransform="matrix(1 0 0 -1 0 40)">
			<stop  offset="3.055727e-03" style="stop-color:#00E8BF"/>
			<stop  offset="4.426538e-02" style="stop-color:#10DAC3"/>
			<stop  offset="0.1059" style="stop-color:#21CBC7"/>
			<stop  offset="0.1735" style="stop-color:#2BC2C9"/>
			<stop  offset="0.2574" style="stop-color:#2EBFCA"/>
			<stop  offset="0.5341" style="stop-color:#30BDCA"/>
			<stop  offset="0.7567" style="stop-color:#31BBCA"/>
			<stop  offset="0.8369" style="stop-color:#33B4C9"/>
			<stop  offset="0.8941" style="stop-color:#36A9C8"/>
			<stop  offset="0.9402" style="stop-color:#3B98C7"/>
			<stop  offset="0.9793" style="stop-color:#4282C5"/>
			<stop  offset="1" style="stop-color:#4673C4"/>
		</linearGradient>
		<path style="fill:url(#SVGID_00000153673682324945113560000005179910280392137356_);" d="M22.2,13.5c-1-1-2.2-1.5-3.6-1.6
			c0,0,0,0-0.1,0c-1.4,0-2.7,0.6-3.7,1.6s-1.4,2.3-1.4,3.7c0,0.2,0.2,0.5,0.4,0.5c0.1,0,0.1,0,0.2,0c0.3,0,0.6-0.2,0.6-0.6l0-0.3v0
			c0-1.5,1-2.9,2.4-3.4c0.5-0.2,0.9-0.3,1.4-0.3c1,0,2,0.4,2.7,1.2c3.6,3.7,3.6,9.3,0.1,13.1c-0.1,0.1-0.3,0.3-0.4,0.4
			c-0.7,0.7-1.6,1.1-2.6,1.1c-0.5,0-1.1-0.1-1.6-0.3c-1.4-0.6-2.2-2-2.2-3.5v0l0-0.3c0-0.3-0.3-0.6-0.6-0.6c-0.1,0-0.1,0-0.2,0
			c-0.2,0.1-0.4,0.3-0.4,0.5c-0.1,1.4,0.3,2.8,1.2,3.8c0.9,1.1,2.2,1.7,3.6,1.7c0.1,0,0.1,0,0.2,0c1.3,0,2.5-0.5,3.5-1.4
			c0,0,0,0,0,0l0,0l0.1-0.1l0.1-0.1c0,0,0.1-0.1,0.2-0.2l0.1-0.2l0,0c1.6-1.8,2.6-3.9,2.8-6.3C25.5,18.7,24.5,15.9,22.2,13.5z"/>
		
			<linearGradient id="SVGID_00000009558573914686957460000013418361685509677749_" gradientUnits="userSpaceOnUse" x1="20.89" y1="21.04" x2="20.89" y2="16.8671" gradientTransform="matrix(1 0 0 -1 0 40)">
			<stop  offset="0" style="stop-color:#00E8BF"/>
			<stop  offset="0" style="stop-color:#30BDCA"/>
			<stop  offset="0.6173" style="stop-color:#30BDCA"/>
		</linearGradient>
		<path style="fill:url(#SVGID_00000009558573914686957460000013418361685509677749_);" d="M22.9,21c0-1.1-0.9-2.1-2-2.1
			c-1.1,0-2,0.9-2,2.1c0,1.1,0.9,2.1,2,2.1C22,23.1,22.9,22.2,22.9,21z M20.9,22.3c-0.6,0-1.1-0.6-1.1-1.2s0.5-1.2,1.1-1.2
			c0.6,0,1.1,0.6,1.1,1.2C22,21.7,21.5,22.3,20.9,22.3z"/>
		
			<linearGradient id="SVGID_00000113314252686924966480000011225127332926938263_" gradientUnits="userSpaceOnUse" x1="15.5662" y1="29.5158" x2="15.5662" y2="23.1661" gradientTransform="matrix(1 0 0 -1 0 40)">
			<stop  offset="0" style="stop-color:#00E8BF"/>
			<stop  offset="0.4121" style="stop-color:#1DCEC6"/>
			<stop  offset="0.7255" style="stop-color:#2BC1C9"/>
			<stop  offset="1" style="stop-color:#30BDCA"/>
		</linearGradient>
		<path style="fill:url(#SVGID_00000113314252686924966480000011225127332926938263_);" d="M11.4,19.5c-0.1,0.1-0.5,0.3-0.6,0.4
			c-0.2,0.2-0.2,0.5-0.1,0.7c0.1,0.1,0.2,0.2,0.4,0.2c0.1,0,0.2,0,0.3-0.1c0.8-0.6,1.6-0.8,2.5-0.9l1.1,0h0c0,0,0.2,0,0.2,0
			c0.1,0,0.1,0,0.1,0c0.2,0,0.4,0,0.7,0.1c0.2,0,0.5,0,0.7,0.1c0,0,0.1,0,0.1,0c0.9,0,1.5-0.7,1.6-1.7v0c1.1-0.1,1.9-0.9,1.9-1.8
			c0-1-1-1.9-2.2-1.9c-1.2,0-2.2,0.8-2.2,1.9c0,0.8,0.7,1.5,1.6,1.8c-0.1,0.6-0.3,0.7-0.6,0.7c-0.1,0-0.2,0-0.3,0
			c-0.6-0.1-1.2-0.1-1.9-0.1c-0.8,0-1.4,0.1-2.1,0.3C12.2,19.1,11.9,19.2,11.4,19.5z M16.9,16.1c0.1-0.6,0.8-1,1.6-0.9
			c0.8,0.1,1.3,0.7,1.2,1.4c-0.1,0.6-0.8,1-1.6,0.9C17.4,17.4,16.8,16.8,16.9,16.1z"/>
		
			<linearGradient id="SVGID_00000089539889798284861020000000068560259304091839_" gradientUnits="userSpaceOnUse" x1="15.7759" y1="18.73" x2="15.7759" y2="6.85" gradientTransform="matrix(1 0 0 -1 0 40)">
			<stop  offset="0" style="stop-color:#30BDCA"/>
			<stop  offset="0.2353" style="stop-color:#31B9CA"/>
			<stop  offset="0.4665" style="stop-color:#35ADC9"/>
			<stop  offset="0.6961" style="stop-color:#3B9AC7"/>
			<stop  offset="0.9235" style="stop-color:#437EC5"/>
			<stop  offset="1" style="stop-color:#4673C4"/>
		</linearGradient>
		<path style="fill:url(#SVGID_00000089539889798284861020000000068560259304091839_);" d="M16.9,24.3c-0.4,0.4-0.7,0.9-0.7,1.5
			c0,1.2,1,2.1,2.4,2.1c1.3,0,2.4-1,2.4-2.1s-1-2.1-2.4-2.1c-0.2,0-0.4,0-0.5,0.1c-0.2-0.8-0.9-2.5-3.8-2.5c-1.1,0-1.9,0.3-2.5,1
			c-1,1.1-0.9,2.8-0.9,3v7.4c0,0.3,0.2,0.5,0.5,0.5h0.1c0.3,0,0.5-0.2,0.5-0.5v-7.4v0c0,0-0.1-1.3,0.6-2.1c0.4-0.4,1-0.6,1.7-0.6
			C16.3,22.4,16.8,23.8,16.9,24.3z M18.5,24.5c0.8,0,1.5,0.6,1.5,1.3s-0.7,1.3-1.5,1.3S17,26.5,17,25.8S17.7,24.5,18.5,24.5z"/>
	</g>
</g>
</svg>
